<svg width="54" height="42" viewBox="0 0 54 42" fill="none" xmlns="http://www.w3.org/2000/svg">
<path d="M38.4978 5.2012C36.8177 10.7215 34.9172 19.3759 40.7565 9.83096C41.2109 9.1254 42.1196 7.28142 42.1196 5.55002C42.1196 3.81861 42.1196 10.6369 42.1196 14.2625C42.0034 11.7098 42.2432 6.39352 44.1326 5.55002L47.7544 3.23514L48.1586 3.79008C47.5034 7.55044 47.1996 15.0204 51.2256 14.8175C55.2516 14.6145 48.1744 15.9749 44.1326 16.6805C37.2721 18.0705 23.1183 21.3546 21.3875 23.3714" stroke="black" stroke-width="2"/>
<path d="M26.9015 9.13377C26.2534 7.6685 24.4386 5.61712 22.3645 9.13377C19.7719 13.5296 19.3688 20.3052 23.9058 15.9489C27.5354 12.4638 28.2479 8.56717 28.1504 7.05446H27.4548C26.501 9.92176 25.0551 15.7149 26.9015 15.9489C27.4418 16.0174 28.1622 15.2476 28.9548 14.004M28.9548 14.004C30.8707 10.9974 33.2083 5.22095 34.4421 1.82059C33.4778 3.18835 32.0472 6.24487 34.039 7.52883C36.5288 9.13377 32.249 19.562 28.9548 14.004Z" stroke="black" stroke-width="2"/>
<path d="M4.54385 9.73898C6.06883 7.77258 9.5858 3.43594 11.4538 1.82059C9.57788 6.74583 6.47356 16.6596 9.0634 16.913C11.6532 17.1664 18.2846 6.95698 21.2765 1.82059C20.5852 3.34356 19.0333 7.12274 18.3558 10.0557C17.6783 12.9887 14.0368 23.678 12.3007 28.656C10.8311 32.7076 7.09569 40.7268 3.91063 40.3911C0.725574 40.0553 2.22998 34.022 3.38032 31.0474C5.25621 27.0987 11.9999 17.4911 19.9784 16.913" stroke="black" stroke-width="2"/>
<path d="M38.8057 3.92854L39.5823 1.59872" stroke="black" stroke-width="2"/>
</svg>
