<svg width="80" height="81" viewBox="0 0 80 81" fill="none" xmlns="http://www.w3.org/2000/svg">
<g clip-path="url(#clip0_323_160)">
<path d="M74.5998 33.1C76.3998 27.6 75.7998 21.5 72.8998 16.5C68.4998 8.8 59.5998 4.9 50.8998 6.7C47.0998 2.4 41.4998 0 35.6998 0C26.7998 0 18.9998 5.7 16.1998 14.1C10.4998 15.3 5.59977 18.8 2.69977 23.9C-1.70023 31.6 -0.700232 41.2 5.19977 47.8C3.39977 53.4 4.09977 59.4 6.99977 64.4C11.3998 72.1 20.2998 76.1 28.9998 74.2C32.8998 78.5 38.3998 81 44.1998 81C53.0998 81 60.8998 75.3 63.6998 66.9C69.3998 65.7 74.2998 62.2 77.1998 57.1C81.5998 49.4 80.5998 39.7 74.5998 33.1ZM44.1998 75.7C40.5998 75.7 37.1998 74.5 34.4998 72.2C34.5998 72.1 34.8998 72 34.9998 71.9L51.0998 62.6C51.8998 62.1 52.3998 61.3 52.3998 60.3V37.6L59.1998 41.5C59.2998 41.5 59.2998 41.6 59.2998 41.7V60.5C59.3998 68.9 52.5998 75.7 44.1998 75.7ZM11.5998 61.8C9.79977 58.7 9.19977 55.1 9.79977 51.6C9.89977 51.7 10.0998 51.8 10.2998 51.9L26.3998 61.2C27.1998 61.7 28.1998 61.7 28.9998 61.2L48.6998 49.8V57.7C48.6998 57.8 48.6998 57.9 48.5998 57.9L32.2998 67.3C25.0998 71.5 15.7998 69 11.5998 61.8ZM7.39977 26.6C9.19977 23.5 11.9998 21.2 15.2998 19.9V39.1C15.2998 40 15.7998 40.9 16.5998 41.4L36.2998 52.8L29.4998 56.7C29.3998 56.7 29.2998 56.8 29.2998 56.7L12.9998 47.3C5.59977 43.1 3.19977 33.8 7.39977 26.6ZM63.3998 39.6L43.6998 28.2L50.4998 24.3C50.5998 24.3 50.6998 24.2 50.6998 24.3L66.9998 33.7C74.2998 37.9 76.6998 47.2 72.4998 54.4C70.6998 57.5 67.8998 59.8 64.5998 61V41.9C64.6998 41 64.1998 40.1 63.3998 39.6ZM70.0998 29.4C69.9998 29.3 69.7998 29.2 69.5998 29.1L53.4998 19.8C52.6998 19.3 51.6998 19.3 50.8998 19.8L31.1998 31.2V23.3C31.1998 23.2 31.1998 23.1 31.2998 23.1L47.5998 13.7C54.8998 9.5 64.0998 12 68.2998 19.3C70.0998 22.3 70.6998 25.9 70.0998 29.4ZM27.4998 43.4L20.6998 39.5C20.5998 39.5 20.5998 39.4 20.5998 39.3V20.5C20.5998 12.1 27.3998 5.3 35.7998 5.3C39.3998 5.3 42.7998 6.5 45.4998 8.8C45.3998 8.9 45.1998 9 44.9998 9.1L28.8998 18.4C28.0998 18.9 27.5998 19.7 27.5998 20.7V43.4H27.4998ZM31.1998 35.4L39.9998 30.3L48.7998 35.4V45.5L39.9998 50.6L31.1998 45.5V35.4Z" fill="white"/>
</g>
<defs>
<clipPath id="clip0_323_160">
<rect width="80" height="81" fill="currentColor"/>
</clipPath>
</defs>
</svg>
