<svg width="86" height="66" viewBox="0 0 86 66" fill="none" xmlns="http://www.w3.org/2000/svg">
<path d="M61.3531 7.25729C58.6209 16.2345 55.5304 30.3083 65.0262 14.7863C65.7651 13.6389 67.2429 10.6402 67.2429 7.82454C67.2429 5.00891 67.2429 16.0969 67.2429 21.9929C67.0539 17.8417 67.444 9.19626 70.5165 7.82454L76.4062 4.06006L77.0635 4.9625C75.9981 11.0776 75.5041 23.2254 82.0512 22.8954C88.5982 22.5653 77.0893 24.7776 70.5165 25.925C59.3598 28.1854 36.3428 33.5262 33.5281 36.8059" stroke="#D1D5DB" stroke-width="3"/>
<path d="M42.4952 13.6525C41.4412 11.2697 38.4899 7.93372 35.1171 13.6525C30.901 20.8011 30.2454 31.8196 37.6236 24.7353C43.5261 19.0679 44.6847 12.7311 44.5261 10.2711H43.395C41.844 14.934 39.4926 24.3548 42.4952 24.7353C43.3739 24.8467 44.5454 23.595 45.8342 21.5725M45.8342 21.5725C48.95 16.6832 52.7514 7.28947 54.7579 1.75977C53.1897 3.98404 50.8631 8.95458 54.1023 11.0426C58.1513 13.6525 51.1913 30.611 45.8342 21.5725Z" stroke="#D1D5DB" stroke-width="3"/>
<path d="M6.13683 14.6367C8.61677 11.4389 14.3361 4.38667 17.3738 1.75977C14.3232 9.76924 9.27495 25.8912 13.4866 26.3033C17.6982 26.7153 28.4821 10.1126 33.3476 1.75977C32.2235 4.23643 29.6998 10.3822 28.5979 15.1518C27.4961 19.9214 21.5743 37.3045 18.7511 45.3998C16.3612 51.9885 10.2867 65.0294 5.10709 64.4834C-0.0724831 63.9375 2.374 54.1261 4.24469 49.2886C7.29528 42.8673 19.5755 27.5258 32.5502 26.5858" stroke="#D1D5DB" stroke-width="3"/>
<path d="M61.8536 5.1877L63.1166 1.39893" stroke="#D1D5DB" stroke-width="3"/>
</svg>
